<svg width="32" height="32" viewBox="0 0 32 32" fill="none" xmlns="http://www.w3.org/2000/svg">
<g id="squares_1_">
<path id="Vector" d="M26.9411 0H12.1756V19.7517H31.9921V5.13898C32.0001 2.36441 29.7248 0 26.9411 0ZM7.64107 0H5.16401C2.38035 0 0.00012207 2.25986 0.00012207 5.14702V7.61598H7.64107V0ZM0.00012207 12.2403H7.64107V19.8562H0.00012207V12.2403ZM24.3592 31.992H26.8362C29.6199 31.992 32.0001 29.7321 32.0001 26.8449V24.384H24.3592V31.992ZM12.1756 24.384H19.8166V32H12.1756V24.384ZM0.00012207 24.384V26.853C0.00012207 29.6275 2.26739 32 5.16401 32H7.64107V24.384H0.00012207Z" fill="#98A2B3"/>
</g>
</svg>
